<svg xmlns="http://www.w3.org/2000/svg" width="14.829" height="14.829" viewBox="0 0 14.829 14.829">
  <g id="Group_138" data-name="Group 138" transform="translate(-506.027 -371.324)">
    <path id="Path_185" data-name="Path 185" d="M517.033,386.153a6.2,6.2,0,0,1-.644-.149,3.4,3.4,0,0,1-2.33-2.593,3.194,3.194,0,0,1,.578-2.735c.019-.027.037-.055.073-.108h-.188q-3.973,0-7.947,0a.51.51,0,0,1-.548-.328v-.23c.185-.44.586-.284.929-.325v-2.71c0-.38.153-.536.532-.537h2.592c.385,0,.544.159.544.546v2.7h.985v-2.713c0-.374.157-.531.524-.532h2.606c.381,0,.531.153.531.539q0,1.273,0,2.548v.151a1.238,1.238,0,0,0,.808-.133.264.264,0,0,0,.183-.285c-.007-.768,0-1.535,0-2.3a.452.452,0,0,1,.513-.516q1.324,0,2.65,0a.446.446,0,0,1,.507.506V379.7c.124,0,.234.008.342,0a.536.536,0,0,1,.586.319v.23c-.129.339-.421.344-.741.322.051.073.079.116.111.157a3.229,3.229,0,0,1,.531,1.131c.04.156.066.317.1.476v.637c-.019.1-.036.207-.057.31a3.437,3.437,0,0,1-2.205,2.672,6.571,6.571,0,0,1-.807.2Zm.387-6a2.522,2.522,0,0,0-2.574,2.575,2.567,2.567,0,0,0,5.134.013A2.5,2.5,0,0,0,517.42,380.156Zm-9.589-.469h1.9v-2.362h-1.9Zm6.563-2.361h-1.9v2.361h1.9Zm4.651,2.351v-2.349h-1.894v1.946A3.548,3.548,0,0,1,519.045,379.677Z" fill="#fff" fill-rule="evenodd"/>
    <path id="Path_186" data-name="Path 186" d="M506.027,375.146v-.259c.193-.424.586-.283.929-.32V374.4c0-.838.006-1.674-.005-2.511a.541.541,0,0,1,.321-.568h3.041a.588.588,0,0,1,.314.607c-.01.82,0,1.641,0,2.462v.174h.985v-.175c0-.84.006-1.68,0-2.519a.514.514,0,0,1,.33-.549h3.011a.516.516,0,0,1,.326.549c-.008.844,0,1.688,0,2.531v.16h.988v-.179c0-.824.006-1.649,0-2.472a.575.575,0,0,1,.315-.589h3.042a.549.549,0,0,1,.321.57c-.01.837,0,1.675,0,2.513v.168c.131,0,.245.007.359,0a.509.509,0,0,1,.569.342v.2a.531.531,0,0,1-.573.341q-6.832-.006-13.664,0A.569.569,0,0,1,506.027,375.146Zm3.7-.579V372.2h-1.892v2.363Zm2.759,0h1.9V372.2h-1.9Zm4.656,0h1.9V372.2h-1.9Z" fill="#fff" fill-rule="evenodd"/>
    <path id="Path_187" data-name="Path 187" d="M517.1,382.707l.864-.863a.438.438,0,0,1,.653-.047.45.45,0,0,1-.037.666c-.374.375-.748.751-1.125,1.124a.44.44,0,0,1-.686,0c-.179-.179-.361-.359-.541-.541a.438.438,0,1,1,.617-.617C516.933,382.514,517.011,382.606,517.1,382.707Z" fill="#fff" fill-rule="evenodd"/>
  </g>
</svg>
