<svg xmlns="http://www.w3.org/2000/svg" width="16.514" height="16.512" viewBox="0 0 16.514 16.512">
  <path id="Path_269" data-name="Path 269" d="M1803.722,710.494h-.839a6.9,6.9,0,0,0-.861-2.077l.593-.592a.653.653,0,0,0,0-.926l-1.317-1.317a.657.657,0,0,0-.927,0l-.592.593a6.907,6.907,0,0,0-2.074-.86v-.838a.654.654,0,0,0-.656-.654h-1.86a.653.653,0,0,0-.656.654v.838a6.919,6.919,0,0,0-2.074.86l-.594-.593a.655.655,0,0,0-.925,0l-1.317,1.317a.651.651,0,0,0,0,.926l.592.592a6.921,6.921,0,0,0-.859,2.077h-.838a.656.656,0,0,0-.657.655v1.862a.656.656,0,0,0,.657.654h.838a6.926,6.926,0,0,0,.859,2.076l-.592.593a.648.648,0,0,0,0,.924l1.317,1.318a.657.657,0,0,0,.925,0l.594-.593a6.786,6.786,0,0,0,2.074.857v.841a.655.655,0,0,0,.656.654h1.86a.656.656,0,0,0,.656-.654v-.841a6.775,6.775,0,0,0,2.074-.857l.592.593a.659.659,0,0,0,.927,0l1.317-1.318a.65.65,0,0,0,0-.924l-.593-.593a6.906,6.906,0,0,0,.861-2.076h.839a.653.653,0,0,0,.653-.654v-1.862A.654.654,0,0,0,1803.722,710.494Zm-7.605,4.908a3.322,3.322,0,1,1,3.323-3.325A3.323,3.323,0,0,1,1796.117,715.4Z" transform="translate(-1787.861 -703.823)" fill="#3d3e40"/>
</svg>
