<svg xmlns="http://www.w3.org/2000/svg" width="36.613" height="29.681" viewBox="0 0 36.613 29.681">
  <g id="Group_81" data-name="Group 81" transform="translate(-51.829 -290.541)">
    <path id="Path_107" data-name="Path 107" d="M88.438,298.323c-.016-1.448,0-2.9,0-4.346V293.9c-.008-.332-.094-.506-.338-.606l-.01-.005a1.442,1.442,0,0,0-.273-.072c-.788-.143-1.579-.274-2.371-.408l-2.964-.5-.018,0q-2.8-.471-5.59-.954-1.643-.287-3.28-.587c-.367-.068-.728-.122-1.083-.159H72.5a10.212,10.212,0,0,0-1.386-.053l-.115.005-.182.012-.084.006-.166.015-.118.011-.069.008-.1.012-.031,0c-.014,0-.029,0-.044.006l-.035.005-.048.008a7.838,7.838,0,0,0-.853.176h0c-.113.031-.225.062-.338.1l-.25.075c-5.329,1.628-10.693,3.138-16.043,4.693l-.1.028c-.062.017-.126.036-.186.055a.725.725,0,0,0-.338.191.645.645,0,0,0-.159.322,1.153,1.153,0,0,0-.02.22c.013,1.606.01,3.213.013,4.821,0,.238,0,.429.007.588l0,.012a1.769,1.769,0,0,0,.017.2.521.521,0,0,0,.01.057c0,.009,0,.015,0,.02a.807.807,0,0,0,.084.23l.013.022a.122.122,0,0,0,.015.022.559.559,0,0,0,.178.146,3.818,3.818,0,0,0,.89.269l.038.008.045.015.012,0c.235.077.3.209.3.482-.016,1.7-.007,3.394-.007,5.09h0v4.778c0,.872.023.9.836,1.168,5.723,1.885,11.45,3.759,17.164,5.672a1.7,1.7,0,0,0,1.673-.222q6.852-4.521,13.74-8.979a1,1,0,0,0,.525-.942c-.016-3.215,0-6.431-.019-9.645a.627.627,0,0,1,.459-.731,1.283,1.283,0,0,0,.153-.061c.008,0,.018-.012.027-.017a.845.845,0,0,0,.437-.793.956.956,0,0,0,0-.132C88.441,298.492,88.438,298.408,88.438,298.323Zm-15.928,7.6c-.052.025-.109.039-.234.084,0-1.549-.007-3.05.015-4.551,0-.127.189-.3.331-.367,2.564-1.127,5.131-2.237,7.7-3.351,2.281-.989,4.564-1.975,6.89-2.982a3.463,3.463,0,0,1,.046.361c0,1.026.012,2.054-.013,3.079a.64.64,0,0,1-.269.479Q79.751,302.315,72.51,305.924Zm-16.526-9.98q7.39-2.151,14.786-4.3a1.5,1.5,0,0,1,.65-.029q6.912,1.167,13.828,2.352c.118.021.231.055.474.115-1.58.682-3.06,1.319-4.541,1.961q-4.546,1.968-9.09,3.947a1.443,1.443,0,0,1-.98.08q-7.776-1.815-15.562-3.6a1.528,1.528,0,0,1-.551-.222C55.325,296.148,55.652,296.04,55.984,295.944ZM53.1,301.586c-.2-.27-.076-.8-.077-1.213,0-1.054,0-2.109,0-3.25L71.028,301.3v4.924C70,305.963,69,305.716,68,305.461q-6.88-1.75-13.762-3.508C53.843,301.851,53.3,301.847,53.1,301.586ZM71.643,318.9c-1.762-.581-3.463-1.143-5.166-1.7q-5.709-1.878-11.421-3.75c-.278-.089-.452-.169-.45-.529.018-3.066.011-6.131.013-9.2,0-.117.013-.233.026-.42l17,4.326Zm14.559-18c0,2.872,0,5.744.007,8.617a.605.605,0,0,1-.288.589q-6.393,4.16-12.781,8.33c-.068.044-.149.073-.3.148V316.9c0-3.111.006-6.223-.008-9.332a.636.636,0,0,1,.419-.673q4.865-2.424,9.72-4.869,1.353-.675,2.705-1.355c.141-.072.289-.135.5-.231C86.187,300.627,86.2,300.764,86.2,300.9Z" fill="#444544" fill-rule="evenodd"/>
    <path id="Path_108" data-name="Path 108" d="M64.536,308.5c-.017.505-.179.816-.689.7q-2.187-.5-4.367-1.032a.534.534,0,0,1-.4-.728.555.555,0,0,1,.743-.378q1.839.426,3.679.858c.2.048.41.1.6.154C64.541,308.209,64.536,308.383,64.536,308.5Z" fill="#444544" fill-rule="evenodd"/>
    <path id="Path_109" data-name="Path 109" d="M88.438,293.9a.673.673,0,0,0-.338-.606l-.01-.005a.684.684,0,0,0-.273-.072l-5.335-.912-.018,0-5.59-.954-4.363-.746H72.5a7.5,7.5,0,0,0-1.382-.052l-.115.005-.182.012-.084.006-.166.015-.118.011-.069.008-.1.012-.031,0c-.014,0-.029,0-.044.006l-.035.005-.028.005-.02,0-.853.176h0l-.588.171-16.043,4.693-.1.028a1.467,1.467,0,0,0-.524.246c-.2.169-.159.322-.159.322s0,5.582,0,5.605v.024l0,.012a.967.967,0,0,0,.017.2.521.521,0,0,0,.01.057c0,.009,0,.015,0,.02a.807.807,0,0,0,.084.23l.013.022a.122.122,0,0,0,.015.022.351.351,0,0,0,.178.146l.928.277.045.015.012,0,1.489.4,17,4.326L73,306.969l9.97-4.945,3.2-1.586,1.394-.727.253-.132a.67.67,0,0,0,.153-.061c.008,0,.018-.012.027-.017a1.205,1.205,0,0,0,.437-.793v-4.8Zm-17.41,12.317C70,305.963,69,305.716,68,305.461q-6.88-1.75-13.762-3.508c-.4-.1-.945-.106-1.145-.367s-.076-.8-.077-1.213c0-1.054,0-2.109,0-3.25L71.028,301.3Zm.083-6.146q-7.776-1.815-15.562-3.6a1.528,1.528,0,0,1-.551-.222c.327-.1.654-.209.986-.3q7.39-2.151,14.786-4.3a1.5,1.5,0,0,1,.65-.029q6.912,1.167,13.828,2.352c.118.021.231.055.474.115-1.58.682-3.06,1.319-4.541,1.961q-4.546,1.968-9.09,3.947A1.443,1.443,0,0,1,71.111,300.075ZM87.244,298.2a.64.64,0,0,1-.269.479q-7.224,3.639-14.465,7.248c-.052.025-.109.039-.234.084,0-1.549-.007-3.05.015-4.551,0-.127.189-.3.331-.367,2.564-1.127,5.131-2.237,7.7-3.351,2.281-.989,4.564-1.975,6.89-2.982a3.463,3.463,0,0,1,.046.361C87.257,296.144,87.269,297.172,87.244,298.2Z" fill="#2a89cb" fill-rule="evenodd"/>
  </g>
</svg>
