<svg xmlns="http://www.w3.org/2000/svg" width="12.457" height="12.463" viewBox="0 0 12.457 12.463">
  <g id="Group_141" data-name="Group 141" transform="translate(-508.524 -573.748)">
    <path id="Path_192" data-name="Path 192" d="M508.524,575.242c.269-.031.537-.07.807-.084.04,0,.121.118.12.18a.239.239,0,0,1-.136.173,2.048,2.048,0,0,1-.391.039v4.858h7.5v-4.851a.93.93,0,0,1-.291-.034.357.357,0,0,1-.185-.2c-.011-.047.1-.168.164-.177a1.473,1.473,0,0,1,.554.006c.084.023.176.2.18.3.018.527.007,1.057.008,1.586,0,.1.01.2.016.335.555,0,1.092.013,1.628,0a1.2,1.2,0,0,1,1.173.654c.357.631.756,1.239,1.111,1.869a1.406,1.406,0,0,1,.183.642c.016,1.244,0,2.489.012,3.733,0,.276-.1.374-.362.362-.287-.014-.576,0-.86,0-.124,1.253-.911,1.636-1.677,1.576a1.514,1.514,0,0,1-1.295-1.554H513.63a1.626,1.626,0,0,1-.663,1.321,1.565,1.565,0,0,1-1.039.226c-.658-.042-1.084-.56-1.273-1.569-.569,0-1.147.007-1.725-.005a1.738,1.738,0,0,1-.406-.105Zm12.051,8.983v-1.61H508.921v1.61c.581,0,1.139.006,1.7-.008a.349.349,0,0,0,.224-.162,1.472,1.472,0,0,1,2.567,0,.4.4,0,0,0,.283.166q1.494.018,2.988,0a.371.371,0,0,0,.264-.147,1.472,1.472,0,0,1,2.584-.011.357.357,0,0,0,.229.156C520.024,584.236,520.293,584.225,520.575,584.225Zm.023-2.022c0-.6.005-1.176-.005-1.753a.691.691,0,0,0-.115-.316c-.4-.676-.8-1.353-1.223-2.017-.088-.136-.258-.3-.4-.308-.657-.033-1.316-.015-1.983-.015V582.2Zm-11.7-.023h7.538v-1.321H508.9v1.321Zm10.406,2.565a1.064,1.064,0,0,0-2.129.007,1.065,1.065,0,1,0,2.129-.007Zm-6.1.013a1.039,1.039,0,0,0-1.05-1.071,1.058,1.058,0,0,0-1.08,1.049,1.065,1.065,0,1,0,2.13.022Z" fill="#6d6e6f" fill-rule="evenodd"/>
    <path id="Path_193" data-name="Path 193" d="M515.685,573.748a1.769,1.769,0,0,1,.088.383c.006,1.784,0,3.567.008,5.35,0,.273-.073.386-.372.384q-2.689-.016-5.381,0c-.278,0-.385-.082-.384-.373.01-1.794,0-3.588.008-5.382a2.253,2.253,0,0,1,.056-.361Zm-4.071,1.883h-1.557v3.83h5.306v-3.834h-1.55c0,.2.013.389,0,.57-.01.092-.055.222-.122.252s-.194-.025-.265-.081c-.24-.19-.468-.4-.711-.608-.185.16-.341.313-.514.441a4.569,4.569,0,0,1-.459.271c-.041-.171-.091-.34-.121-.513A2.205,2.205,0,0,1,511.614,575.631Zm1.8-1.489h-1.379v1.692c.185-.16.336-.281.475-.414a.269.269,0,0,1,.429,0c.139.131.291.248.475.4Zm-3.377,0c0,.313-.007.61.007.907,0,.055.088.151.137.152.469.012.939.008,1.415.008V574.14Zm3.8-.006v1.06h1.523v-1.06Z" fill="#6d6e6f" fill-rule="evenodd"/>
    <path id="Path_194" data-name="Path 194" d="M518.646,580.482c-.279,0-.559-.005-.839,0-.192.005-.295-.067-.295-.266,0-.508,0-1.017,0-1.525,0-.191.091-.288.289-.272a.26.26,0,0,0,.062,0,1.034,1.034,0,0,1,1.237.673,10.085,10.085,0,0,0,.587.986c.181.3.126.4-.232.4C519.185,580.484,518.916,580.482,518.646,580.482Zm.616-.407c-.209-.341-.385-.631-.564-.921-.251-.407-.26-.41-.751-.31v1.231Z" fill="#6d6e6f" fill-rule="evenodd"/>
    <path id="Path_195" data-name="Path 195" d="M512.877,578.662c-.631,0-1.231-.008-1.83,0-.258.006-.36-.092-.342-.347.013-.207,0-.415,0-.622,0-.409.014-.425.412-.426h1.721a.742.742,0,0,0,.045-.082c.046-.16.09-.319.135-.479a2.9,2.9,0,0,1,.448.219c.363.257.716.529,1.07.8.231.176.234.275.009.452-.393.3-.785.61-1.188.9a1.379,1.379,0,0,1-.355.132c-.037-.121-.078-.241-.111-.363A1.03,1.03,0,0,1,512.877,578.662Zm1.314-.688-.845-.657c-.137.346-.137.346-.52.347H511.11v.61c.579,0,1.137.009,1.7-.005.262-.006.489,0,.525.356Z" fill="#6d6e6f" fill-rule="evenodd"/>
  </g>
</svg>
