<svg xmlns="http://www.w3.org/2000/svg" width="15.472" height="15.462" viewBox="0 0 15.472 15.462">
  <g id="Group_139" data-name="Group 139" transform="translate(-505.966 -438.453)">
    <path id="Path_188" data-name="Path 188" d="M510.266,447.949c.564.563,1.094,1.089,1.626,1.618l1.827-1.846.62.37c-.073.075-.146.148-.216.221a.309.309,0,0,0-.031.465.3.3,0,0,0,.455-.043l4.855-4.851c.533-.534,1.071-1.065,1.6-1.6a.458.458,0,0,0,.143-.281.326.326,0,0,0-.159-.243.349.349,0,0,0-.289.017,2.091,2.091,0,0,0-.325.287c-.12-.194-.237-.381-.374-.6-.265.271-.513.516-.746.77a.223.223,0,0,1-.289.059,1.019,1.019,0,0,1-.693-.674.817.817,0,0,1,.408-.935.8.8,0,0,1,1,.174,4.762,4.762,0,0,1,.362.594.761.761,0,0,0,.074-.061l1.175-1.174c.159-.159.2-.275.087-.471a2.631,2.631,0,0,0-.422-.582,4.558,4.558,0,0,0-.7-.588c-.276-.185-.4-.151-.636.081l-9.21,9.2A.909.909,0,0,1,510.266,447.949Zm6.139-2.854c-.2.189-.4.372-.593.564-.3.3-.318.3-.691.08a.539.539,0,0,1-.051-.031.837.837,0,0,1-.349-1.035.826.826,0,0,1,.944-.5,1.043,1.043,0,0,1,.741.919l.935-.929c.191.115.382.227.557.333l-1.126,1.126a2.349,2.349,0,0,0-.132-.236C516.568,445.286,516.484,445.192,516.405,445.1Zm-1.765,1.75c-.194.188-.39.377-.581.567-.338.335-.4.341-.8.07a.832.832,0,0,1-.215-1.211.822.822,0,0,1,1.224-.1,1.452,1.452,0,0,1,.373.679c.3-.313.591-.624.872-.918.234.14.421.253.59.353l-1.119,1.112C514.876,447.225,514.758,447.034,514.64,446.845Zm3.932-3.007c-.114-.186-.232-.375-.363-.585l-.648.658c-.243.248-.243.248-.553.1a.886.886,0,0,1-.556-.749.829.829,0,0,1,1.538-.488,4.959,4.959,0,0,1,.247.489l.87-.891c.219.131.408.241.592.352C519.323,443.093,518.948,443.463,518.572,443.838Z" fill="#6d6e6f" fill-rule="evenodd"/>
    <path id="Path_189" data-name="Path 189" d="M511.135,450.352l-1.61-1.606c-.02.02-.053.046-.084.075q-1.595,1.594-3.189,3.188c-.352.351-.386.623-.061,1a5.875,5.875,0,0,0,.822.77.5.5,0,0,0,.733-.05c.547-.527,1.08-1.067,1.619-1.6.559-.558,1.115-1.116,1.674-1.674C511.07,450.42,511.1,450.388,511.135,450.352Z" fill="#6d6e6f" fill-rule="evenodd"/>
  </g>
</svg>
