<svg xmlns="http://www.w3.org/2000/svg" width="18.368" height="16.879" viewBox="0 0 18.368 16.879">
  <g id="Group_140" data-name="Group 140" transform="translate(-504.519 -504.588)">
    <path id="Path_190" data-name="Path 190" d="M522.887,513.516a1.742,1.742,0,0,1-.365.279c-.434.178-.878.335-1.322.488a.193.193,0,0,0-.153.221c0,1.309,0,2.62,0,3.93,0,.313-.054.394-.347.5q-3.392,1.25-6.786,2.495a.646.646,0,0,1-.421,0c-2.266-.825-4.528-1.662-6.791-2.5-.292-.108-.347-.186-.347-.5,0-1.3,0-2.608,0-3.911a.214.214,0,0,0-.169-.248c-.439-.149-.876-.306-1.3-.483a1.774,1.774,0,0,1-.366-.277v-.221c.622-.995,1.24-1.992,1.866-2.984a.537.537,0,0,1,.247-.2c.946-.362,1.9-.716,2.844-1.071a.375.375,0,1,1,.264.693c-.582.221-1.165.438-1.748.658-.05.018-.1.039-.178.069.074.034.12.06.167.078q2.792,1.029,5.583,2.053a.4.4,0,0,0,.259.007q2.821-1.032,5.637-2.072c.033-.012.065-.029.135-.058-.077-.034-.127-.059-.179-.078-.582-.219-1.165-.44-1.748-.656a.388.388,0,0,1-.289-.3.362.362,0,0,1,.5-.407c.979.359,1.956.728,2.931,1.1a.464.464,0,0,1,.2.171q.942,1.5,1.874,3Zm-2.572,1.1-.174.063-4.378,1.611a.4.4,0,0,1-.587-.2q-.492-.786-.981-1.571c-.031-.048-.065-.093-.113-.164v6.218c.072-.024.13-.04.187-.06l2.352-.868,3.539-1.3c.076-.029.158-.037.158-.162C520.314,517.005,520.315,515.824,520.315,514.616Zm-6.989-.26c-.053.078-.087.125-.118.173l-.981,1.572a.4.4,0,0,1-.573.193q-1.553-.571-3.108-1.149l-1.455-.534v.222c0,1.083,0,2.166-.006,3.249a.251.251,0,0,0,.2.283q2.39.871,4.773,1.754c.417.155.834.3,1.266.463Zm-.185-1.116c-.037-.02-.056-.036-.078-.045q-3.033-1.117-6.065-2.238c-.111-.04-.151.009-.2.089-.415.67-.835,1.337-1.252,2.007-.031.05-.06.1-.1.165l6.265,2.306C512.193,514.755,512.662,514,513.141,513.24Zm1.119-.01c.447.715.889,1.413,1.317,2.118a.216.216,0,0,0,.317.11c1.607-.6,3.217-1.191,4.827-1.785l1.244-.458c-.45-.719-.893-1.415-1.321-2.12a.215.215,0,0,0-.316-.109c-1.258.471-2.518.932-3.778,1.4C515.795,512.661,515.04,512.94,514.26,513.23Z" fill="#6d6e6f" fill-rule="evenodd"/>
    <path id="Path_191" data-name="Path 191" d="M513.336,509.893v-.2q0-2.35,0-4.7c0-.264.146-.418.383-.409a.354.354,0,0,1,.348.334c0,.055,0,.109,0,.164v4.842c.073-.066.12-.107.165-.151q.7-.695,1.39-1.387a.375.375,0,0,1,.468-.087.335.335,0,0,1,.176.386.5.5,0,0,1-.132.233q-1.059,1.07-2.127,2.131a.374.374,0,0,1-.607,0q-1.068-1.064-2.131-2.13a.381.381,0,0,1-.034-.567.386.386,0,0,1,.568.052q.746.748,1.487,1.5Z" fill="#6d6e6f" fill-rule="evenodd"/>
  </g>
</svg>
