<svg xmlns="http://www.w3.org/2000/svg" width="14.546" height="13.49" viewBox="0 0 14.546 13.49">
  <g id="Group_137" data-name="Group 137" transform="translate(-506.429 -301.818)">
    <path id="Path_183" data-name="Path 183" d="M506.429,302.4a.79.79,0,0,1,.36-.469,1.087,1.087,0,0,1,.419-.1c3-.006,5.994,0,8.991-.007a.739.739,0,0,1,.676,1.117.681.681,0,0,1-.556.344c-.08.005-.161.008-.242.008h-8.169v10.543h10.539v-.176q0-2.605,0-5.212a.727.727,0,0,1,.8-.758.741.741,0,0,1,.669.78c.005.364,0,.729,0,1.094q0,2.457,0,4.914a.747.747,0,0,1-.412.747.961.961,0,0,1-.4.082q-5.935.008-11.873.006a.794.794,0,0,1-.808-.579Z" fill="#fff" fill-rule="evenodd"/>
    <path id="Path_184" data-name="Path 184" d="M513.155,309.584c.059-.07.094-.122.138-.166q3.18-3.184,6.365-6.367a.742.742,0,0,1,.936-.188.729.729,0,0,1,.221,1.1,1.688,1.688,0,0,1-.133.146l-6.929,6.929a.751.751,0,0,1-1.2,0q-1.709-1.707-3.414-3.414a.735.735,0,0,1-.085-1.054.725.725,0,0,1,1-.1,1.517,1.517,0,0,1,.156.143l2.822,2.823C513.067,309.474,513.1,309.517,513.155,309.584Z" fill="#fff" fill-rule="evenodd"/>
  </g>
</svg>
