<svg xmlns="http://www.w3.org/2000/svg" width="13.702" height="11.397" viewBox="0 0 13.702 11.397">
  <path id="Path_182" data-name="Path 182" d="M516.064,241.913l-.112.457c-.069.28-.14.561-.207.841-.012.053-.034.064-.083.064H508.89a.337.337,0,0,0-.322.2.479.479,0,0,0,.052.512.314.314,0,0,0,.251.119c.254,0,.507,0,.761,0h.067a.806.806,0,0,0-.427.772.76.76,0,0,0,.266.543.8.8,0,0,0,1.161-.1.808.808,0,0,0-.246-1.214h4.452a.8.8,0,0,0-.422.733.771.771,0,0,0,.262.572.806.806,0,0,0,1.156-.075.815.815,0,0,0-.233-1.231l.049,0c.121,0,.243,0,.364,0a.311.311,0,0,0,.294-.164.875.875,0,0,0,.1-.235q.383-1.522.756-3.048.522-2.1,1.042-4.193.166-.665.329-1.33c.011-.045.031-.054.073-.054h1.7a.425.425,0,0,0,.1-.838.451.451,0,0,0-.121-.015h-2.035a.419.419,0,0,0-.427.33q-.169.664-.332,1.33c-.011.052-.031.066-.085.066q-4.925,0-9.851,0a.743.743,0,0,0-.183.017.431.431,0,0,0-.326.555q.3,1.289.606,2.578.287,1.215.572,2.432a.458.458,0,0,0,.488.38h7.281Zm-.673-3.414c.072-.578.141-1.147.211-1.719h1.736c0,.015-.005.027-.008.038q-.2.819-.405,1.639c-.009.036-.026.043-.06.043h-1.474Zm-7.282-1.718a.211.211,0,0,1,.037-.005h1.582c.03,0,.043.007.046.038.013.125.028.249.041.373l.12,1.066c.009.081.018.162.026.244h-1.447C508.38,237.925,508.246,237.356,508.109,236.781Zm4.155,1.716h-1.443c-.065-.573-.129-1.144-.193-1.717h1.636Zm2.267,0h-1.409V236.78h1.622C514.672,237.355,514.6,237.925,514.531,238.5Zm1.747,2.56h-1.2q.107-.854.211-1.7H516.7C516.559,239.925,516.419,240.49,516.278,241.056Zm-5.36-1.7h1.353v1.7h-1.163C511.045,240.49,510.981,239.925,510.918,239.357Zm-.669,1.7-.027,0c-.357,0-.712,0-1.069,0-.036,0-.041-.018-.048-.045-.082-.348-.162-.7-.245-1.044-.048-.2-.095-.408-.143-.616h1.342C510.123,239.924,510.185,240.488,510.249,241.056Zm4.176-1.7c-.07.572-.14,1.137-.21,1.7h-1.086v-1.7Z" transform="translate(-507.101 -234.225)" fill="#fff" fill-rule="evenodd"/>
</svg>
