<svg xmlns="http://www.w3.org/2000/svg" width="33.677" height="24.405" viewBox="0 0 33.677 24.405">
  <path id="Path_62" data-name="Path 62" d="M821.216,274.384a18.108,18.108,0,0,1-1.591,2.266,2.809,2.809,0,0,1-1.613.9c-1.606.12-3.225.058-4.839.037a1.679,1.679,0,1,1-.012-3.354c.07,0,.141,0,.21,0,1.293-.029,2.8.346,3.811-.2s1.518-2.03,2.265-3.091c.57-.806.939-1.88,2.245-1.755s1.485,1.246,1.89,2.14c1.273,2.8,2.513,5.623,3.766,8.436.138.308.29.608.553,1.157.8-2.819,1.525-5.384,2.247-7.95.768-2.727,1.547-5.45,2.294-8.183.24-.873.689-1.456,1.639-1.493a1.731,1.731,0,0,1,1.771,1.346c1.112,2.946,2.267,5.875,3.366,8.825a1,1,0,0,0,1.142.783c.98-.052,1.966-.029,2.947-.009a1.678,1.678,0,1,1,.06,3.351c-1.649.026-3.3,0-4.947.009a1.722,1.722,0,0,1-1.731-1.264c-.724-1.885-1.457-3.766-2.3-5.947-.489,1.719-.9,3.152-1.3,4.585-1.044,3.7-2.1,7.4-3.119,11.11-.245.9-.66,1.559-1.663,1.611-.953.048-1.423-.542-1.78-1.352C824.794,282.4,823.034,278.471,821.216,274.384Z" transform="translate(-811.415 -263.286)" fill="#fff" fill-rule="evenodd"/>
</svg>
